<svg height="60" viewBox="0 0 60 60" width="60" xmlns="http://www.w3.org/2000/svg"><g id="042---Lanes-Converging" fill="none"><g id="Layer_4"><path id="Shape" d="m58.42 31.41c-16.246 16.24-10.009 10-27.01 27.01-.7800749.7754472-2.0399251.7754472-2.82 0-11.428-11.429.839.829-27.01-27.01-.77544719-.7800749-.77544719-2.0399251 0-2.82 24.92-24.91 17.42-17.421 27.01-27.01.7800749-.77544719 2.0399251-.77544719 2.82 0 16.24 16.246 10 10.009 27.01 27.01.7754472.7800749.7754472 2.0399251 0 2.82z" fill="#cad9fc"/><path id="Shape" d="m54.92 31.41c-16.246 16.24-10.1 10.09-26.67 26.67-16.571-16.58-10.421-10.427-26.67-26.67-.77544719-.7800749-.77544719-2.0399251 0-2.82 16.246-16.24 10.1-10.09 26.67-26.67 16.571 16.58 10.421 10.427 26.67 26.67.7754472.7800749.7754472 2.0399251 0 2.82z" fill="#e8edfc"/><g fill="#a4c2f7"><rect id="Rectangle-path" height="27" rx="1" width="5" x="20" y="16"/><path id="Shape" d="m41.714 33.285c.378.945.286 1.094.286 6.715v2c0 .5522847-.4477153 1-1 1-3.306 0-3.187.043-3.5-.14-.3085942-.1764973-.4992927-.5044987-.5-.86 0-8.46.031-7.923-.072-8.179l-5.642-9.106c-.1888903-.4723116-.2859581-.9763176-.286-1.485v-6.23c0-.5522847.4477153-1 1-1h3c.5522847 0 1 .4477153 1 1 0 7.329-.031 6.922.072 7.179z"/></g></g><path id="Shape" d="m30.75 58.08-13.16-13.17-13.51-13.5c-.77544719-.7800749-.77544719-2.0399251 0-2.82l13.51-13.5 13.16-13.17.25-.25-.09-.09c-.7800749-.77544719-2.0399251-.77544719-2.82 0l-.34.34-13.16 13.17-13.51 13.5c-.77544719.7800749-.77544719 2.0399251 0 2.82l13.51 13.5 13.16 13.17.34.34c.7800749.7754472 2.0399251.7754472 2.82 0l.09-.09z" fill="#fff" transform="translate(1)"/><g id="Layer_2" transform="translate(-1 -1)"><path id="Rectangle-path" d="m1.413 25.757h8v2h-8z" fill="#fff" transform="matrix(.707 -.707 .707 .707 -17.334 11.664)"/><g fill="#428dff"><path id="Shape" d="m5.422 25.758c-.55451653.0030317-1.0020121.4542122-1.00049624 1.008735.00151585.5545227.45147143 1.00325 1.00599624 1.00325s1.00448039-.4487273 1.00599624-1.00325c.00151586-.5545228-.44597971-1.0057033-1.00049624-1.008735z"/><path id="Shape" d="m25 45c1.1045695 0 2-.8954305 2-2v-25c0-1.1045695-.8954305-2-2-2h-3c-1.1045695 0-2 .8954305-2 2v25c0 1.1045695.8954305 2 2 2zm-3-27h3v25h-3z"/><path id="Shape" d="m36 16h-3c-1.1045695 0-2 .8954305-2 2v6.229c-.0003803.6365092.1211417 1.267202.358 1.858.0213569.0535561.0474609.1050947.078.154l5.564 8.98v7.779c.0076299 1.1013936.8986064 1.9923701 2 2h3c1.1045695 0 2-.8954305 2-2v-7.229c.0003803-.6365092-.1211417-1.267202-.358-1.858-.0213569-.0535561-.0474609-.1050947-.078-.154l-5.564-8.98v-6.779c0-1.1045695-.8954305-2-2-2zm5.814 18.732c.1231856.332546.1861687.6843713.186 1.039l.0000003 7.229h-3.0000003v-7.808c-.0000202-.2534357-.0482086-.5045583-.142-.74-.0216744-.0545505-.0481099-.1070867-.079-.157l-5.593-9.027c-.1236641-.3324155-.1866628-.6843277-.186-1.039l-.0000052-6.229h3.0000052v6.808c.0000202.2534357.0482086.5045583.142.74.0216744.0545505.0481099.1070867.079.157z"/><path id="Shape" d="m31 44c0 .5522847.4477153 1 1 1s1-.4477153 1-1v-2c0-.5522847-.4477153-1-1-1s-1 .4477153-1 1z"/><path id="Shape" d="m31 38c0 .5522847.4477153 1 1 1s1-.4477153 1-1v-2c0-.5522847-.4477153-1-1-1s-1 .4477153-1 1z"/><path id="Shape" d="m31 32c0 .5522847.4477153 1 1 1s1-.4477153 1-1v-2c0-.5522847-.4477153-1-1-1s-1 .4477153-1 1z"/><path id="Shape" d="m33.121 1.877c-1.1714996-1.17114581-3.0705004-1.17114581-4.242 0l-21.345 21.345c-.25995658.2510745-.3642126.6228779-.27269716.9725073.09151544.3496295.3645604.6226744.71418984.7141899.34962943.0915154.72143285-.0127406.97250732-.2726972l21.345-21.345c.3904999-.39038194 1.0235001-.39038194 1.414 0l27 27c.3903819.3904999.3903819 1.0235001 0 1.414l-27 27c-.3904999.3903819-1.0235001.3903819-1.414 0l-27-27c-.39038194-.3904999-.39038194-1.0235001 0-1.414.25957683-.2514473.36328813-.623386.27127504-.9728705-.09201308-.3494846-.36543233-.6221315-.71517579-.7131556-.34974347-.091024-.72138725.013739-.97209925.2740261-1.17114581 1.1714996-1.17114581 3.0705004 0 4.242l27 27c1.1714996 1.1711458 3.0705004 1.1711458 4.242 0l27-27c1.1711458-1.1714996 1.1711458-3.0705004 0-4.242z"/></g></g></g></svg>